<svg id="Layer_1" data-name="Layer 1" xmlns="http://www.w3.org/2000/svg" viewBox="0 0 122.88 120.98"><defs><style>.cls-1{fill-rule:evenodd;}</style></defs><title>road-map</title><path class="cls-1" d="M23.46,90.44a30.26,30.26,0,0,1-6.64,5.5.93.93,0,0,1-1.07,0A37.48,37.48,0,0,1,6.5,87.72,29.39,29.39,0,0,1,.28,74.3,17.87,17.87,0,0,1,2.51,61.74,15.5,15.5,0,0,1,6,57.93,16.79,16.79,0,0,1,16.49,54a14.82,14.82,0,0,1,10,4.09,14.29,14.29,0,0,1,2.67,3.25c2.45,4,3,9.17,1.9,14.39a31.55,31.55,0,0,1-7.6,14.66Zm-7.07,10.73a9.89,9.89,0,0,1,9.19,6.21,3.27,3.27,0,0,1,.54,0h7.94a4,4,0,0,1,0,7.94H26.12a3.48,3.48,0,0,1-.73-.07,9.9,9.9,0,1,1-9-14ZM107.47,46.6a9.91,9.91,0,1,1-9.08,13.87H86a4,4,0,1,1,0-7.93H98.39a9.9,9.9,0,0,1,9.08-5.94ZM76.69,79.94a4,4,0,1,0,0,7.94h9.55a4,4,0,1,0,0-7.94ZM70.62,60.56a4,4,0,0,0-1.05-7.87,17.57,17.57,0,0,0-9.21,4.15,4,4,0,0,0,3.46,6.88,4.11,4.11,0,0,0,1.74-.88,9.65,9.65,0,0,1,5.06-2.28Zm-8,12.51A4,4,0,0,0,55,75.43l.18.54a17.72,17.72,0,0,0,5.45,7.84,4,4,0,0,0,5.06-6.12,9.83,9.83,0,0,1-3.11-4.62ZM49.93,107.34a4,4,0,0,0,0,7.94h7.94a4,4,0,1,0,0-7.94Zm23.82,0a4,4,0,0,0,0,7.94h7.94a4,4,0,1,0,0-7.94Zm22.55-.44a4,4,0,0,0-.12,7.52,3.92,3.92,0,0,0,2.53,0,17.64,17.64,0,0,0,8.35-5.67,4,4,0,1,0-6.15-5l-.2.23a9.81,9.81,0,0,1-4.41,2.89Zm5.78-13.68a4,4,0,0,0,7-3.68,17.91,17.91,0,0,0-7-7.27,4,4,0,1,0-3.94,6.89,9.93,9.93,0,0,1,3.86,4.06ZM114.75,36.4a30.65,30.65,0,0,1-6.65,5.5,1,1,0,0,1-1.07,0,37.39,37.39,0,0,1-9.24-8.25,29.44,29.44,0,0,1-6.22-13.42A17.81,17.81,0,0,1,93.8,7.7a15.32,15.32,0,0,1,3.44-3.82A16.73,16.73,0,0,1,107.78,0a15.39,15.39,0,0,1,12.67,7.33c2.45,4,3,9.18,1.9,14.39a31.62,31.62,0,0,1-7.6,14.67ZM107.08,8.14A7.86,7.86,0,1,1,99.22,16a7.85,7.85,0,0,1,7.86-7.86Zm-91.29,54A7.86,7.86,0,1,1,7.93,70a7.85,7.85,0,0,1,7.86-7.86Z"/></svg>