<svg xmlns="http://www.w3.org/2000/svg" shape-rendering="geometricPrecision" fill="currentColor" text-rendering="geometricPrecision" image-rendering="optimizeQuality" fill-rule="evenodd" clip-rule="evenodd" viewBox="0 0 512 305.98"><path d="M153.12 122.45h21.82v22.3h-21.82v-22.3zm-15.88 90.06h83.32v79.05h89.77v-136.6c0-.38.04-.74.11-1.1L179.48 58.02 45.77 153.91c.13.47.2.97.2 1.48v136.17h91.27v-79.05zm187.51 87.74c0 3.16-2.56 5.73-5.74 5.73H37.28c-3.17 0-5.74-2.57-5.74-5.73V161.36c-29.41 11.32-40.3-24.88-23.87-37.82L174.57 1.51c2.03-1.86 5.16-2.05 7.4-.3l167.26 121.77c-.01.02.62.56.68.63 19.8 21.32-1.07 49.48-25.16 38.11v138.53zm20.67-87.74h23.08v81.11h104.1V162.93c0-.43.06-.86.16-1.26l-114.6-82.19-16.82 12.31-34.56-25.16 49.24-35.85a4.904 4.904 0 0 1 6.34.26l89.84 65.68V65.21h39.1v60.1l14.13 10.33c14.03 10.9 4.85 42.16-20.46 32.41v133.02c0 2.71-2.21 4.91-4.92 4.91H344.79l.63-5.73v-87.74zm-140.75-60.33h-21.81v22.3h21.81v-22.3zm-51.55 0h21.82v22.3h-21.82v-22.3zm51.55-29.73h-21.81v22.3h21.81v-22.3z"/></svg>